<svg id="Layer_1" data-name="Layer 1" xmlns="http://www.w3.org/2000/svg" viewBox="0 0 1080 941"><defs><style>.cls-1{fill:#fff;}.cls-2{fill:#1ed760;}</style></defs><path class="cls-1" d="M217.73,941.34A45.33,45.33,0,0,1,172.4,896V45.31a45.33,45.33,0,0,1,90.66,0V896A45.34,45.34,0,0,1,217.73,941.34Z"/><path class="cls-1" d="M217.72,941.34A45.34,45.34,0,0,1,185.66,864L355.27,694.34a45.33,45.33,0,1,1,64.11,64.11L249.77,928.06A45.19,45.19,0,0,1,217.72,941.34Z"/><path class="cls-1" d="M219.23,941.34a45.19,45.19,0,0,1-32.06-13.28L17.56,758.45a45.33,45.33,0,1,1,64.11-64.11L251.28,864a45.34,45.34,0,0,1-32.05,77.39Z"/><path class="cls-2" d="M941.31,173.46c-124.41,76-278.64,93.73-458.43,52.64A29.43,29.43,0,0,1,496,168.72c164.3,37.54,303.81,22.21,414.63-45.48a29.43,29.43,0,0,1,30.71,50.22Z"/><path class="cls-2" d="M1008.84,261.52a36.79,36.79,0,0,1-12.12,50.59C851,401.64,637.92,426.84,466.5,374.82a36.79,36.79,0,1,1,21.39-70.41c150.06,45.55,343.46,23,470.33-55a36.8,36.8,0,0,1,50.62,12.14Z"/><path class="cls-2" d="M1013.82,395.35a44.14,44.14,0,1,1,45,75.93c-175.14,104-452.3,113.76-619,63.14a44.15,44.15,0,1,1,25.63-84.49C610.69,494,861.67,485.71,1013.8,395.35Z"/></svg>